Coordinates
version=1
nRows=17
nColumns=40
inDegrees=yes

Units are S.I. units (second, meters, Newtons, ...)
If the header above contains a line with 'inDegrees', this indicates whether rotational values are in degrees (yes) or radians (no).

endheader
time	pelvis_tilt	pelvis_list	pelvis_rotation	pelvis_tx	pelvis_ty	pelvis_tz	hip_flexion_r	hip_adduction_r	hip_rotation_r	knee_angle_r	knee_angle_r_beta	ankle_angle_r	subtalar_angle_r	mtp_angle_r	hip_flexion_l	hip_adduction_l	hip_rotation_l	knee_angle_l	knee_angle_l_beta	ankle_angle_l	subtalar_angle_l	mtp_angle_l	lumbar_extension	lumbar_bending	lumbar_rotation	arm_flex_r	arm_add_r	arm_rot_r	elbow_flex_r	pro_sup_r	wrist_flex_r	wrist_dev_r	arm_flex_l	arm_add_l	arm_rot_l	elbow_flex_l	pro_sup_l	wrist_flex_l	wrist_dev_l
      3.20000000	      4.52447709	     -3.57622481	      1.20503865	     -0.31733226	      0.95202615	     -1.04974940	     36.81500975	     -1.33982766	      4.08197628	      8.68190118	      0.15152776	      2.54538817	      0.00000000	      0.00000000	      2.71408877	      1.25517227	     -7.67858903	     13.34259704	      0.23287225	     -5.47092441	      0.00000000	      0.00000000	    -13.21757203	      1.65124358	      1.14333184	     82.23014808	    -12.25295292	     22.82126672	     21.98476060	     85.61190767	      0.00000000	      0.00000000	     81.84448053	    -19.66912728	     29.78856649	     32.18464498	     85.36480900	      0.00000000	      0.00000000
      3.20500000	      4.52217808	     -3.62468659	      1.22850089	     -0.31762119	      0.95202747	     -1.04969231	     36.89678372	     -1.30212005	      4.09871908	      8.74216041	      0.15257948	      2.67642159	      0.00000000	      0.00000000	      2.80705599	      1.18675327	     -7.72431220	     13.47228113	      0.23513566	     -5.46459483	      0.00000000	      0.00000000	    -13.27302458	      1.69228429	      1.14838825	     82.28934673	    -12.27550835	     22.70074814	     22.00297432	     85.66568951	      0.00000000	      0.00000000	     81.97094804	    -19.64752960	     29.99354058	     32.08230091	     85.29293688	      0.00000000	      0.00000000
      3.21000000	      4.52438593	     -3.63818019	      1.25025344	     -0.31785968	      0.95206403	     -1.04962162	     36.95976567	     -1.29231961	      4.06237443	      8.74986735	      0.15271399	      2.67917950	      0.00000000	      0.00000000	      2.84814329	      1.15861988	     -7.71456822	     13.50991106	      0.23579243	     -5.59746388	      0.00000000	      0.00000000	    -13.33261269	      1.70431695	      1.14011068	     82.35611007	    -12.29337309	     22.81306676	     21.94274076	     85.79117797	      0.00000000	      0.00000000	     81.99230621	    -19.61502010	     29.87978846	     32.12370509	     85.10334079	      0.00000000	      0.00000000
      3.21500000	      4.50013756	     -3.71772917	      1.26788051	     -0.31814253	      0.95203543	     -1.04953578	     37.08428114	     -1.20970222	      3.97027102	      8.79550805	      0.15351057	      2.54615210	      0.00000000	      0.00000000	      2.96243496	      1.05581612	     -7.67261616	     13.64531776	      0.23815572	     -5.52184136	      0.00000000	      0.00000000	    -13.35163925	      1.77374459	      1.19183495	     82.41845694	    -12.35972258	     22.82518754	     21.88423021	     85.79391926	      0.00000000	      0.00000000	     82.06603276	    -19.48112565	     29.77928420	     31.99742119	     85.15590074	      0.00000000	      0.00000000
      3.22000000	      4.50232210	     -3.73278967	      1.26959216	     -0.31844390	      0.95204286	     -1.04943724	     37.18339198	     -1.18014093	      4.00459936	      8.86153345	      0.15466294	      2.53341636	      0.00000000	      0.00000000	      3.01621804	      1.02518843	     -7.69909260	     13.71677515	      0.23940289	     -5.52183749	      0.00000000	      0.00000000	    -13.42412502	      1.78001446	      1.19317689	     82.51174064	    -12.36232955	     22.92746801	     21.84000586	     85.61216488	      0.00000000	      0.00000000	     82.16806409	    -19.49794090	     29.88375295	     31.98189241	     85.35033936	      0.00000000	      0.00000000
      3.22500000	      4.52323973	     -3.76234932	      1.27146940	     -0.31871140	      0.95207950	     -1.04938495	     37.24673026	     -1.14127900	      3.97690598	      8.89841115	      0.15530657	      2.65914077	      0.00000000	      0.00000000	      3.04637776	      0.99191726	     -7.65203312	     13.76249071	      0.24020078	     -5.57361530	      0.00000000	      0.00000000	    -13.51079873	      1.80701812	      1.21344609	     82.61770873	    -12.47087013	     23.33398049	     21.79629245	     85.68309338	      0.00000000	      0.00000000	     82.19175106	    -19.47388819	     29.75473225	     32.04913843	     85.19986055	      0.00000000	      0.00000000
      3.23000000	      4.47803985	     -3.81742141	      1.29427091	     -0.31901505	      0.95196595	     -1.04931130	     37.38316578	     -1.09172008	      3.89056645	      8.93030059	      0.15586315	      2.57949729	      0.00000000	      0.00000000	      3.20124945	      0.91788346	     -7.58974095	     13.94291870	      0.24334984	     -5.45765120	      0.00000000	      0.00000000	    -13.52277256	      1.86600090	      1.18379563	     82.72261305	    -12.41070097	     23.19380231	     21.67196607	     85.81595793	      0.00000000	      0.00000000	     82.33533977	    -19.54920575	     30.20181757	     31.98532757	     84.87303734	      0.00000000	      0.00000000
      3.23500000	      4.48443193	     -3.81078281	      1.23410339	     -0.31931218	      0.95195235	     -1.04918186	     37.46335483	     -1.05313244	      3.98480011	      8.94998243	      0.15620666	      2.82933063	      0.00000000	      0.00000000	      3.23767639	      0.91679783	     -7.65858044	     13.99321651	      0.24422770	     -5.45194580	      0.00000000	      0.00000000	    -13.59997425	      1.83411305	      1.27934511	     82.77426953	    -12.41545197	     22.95486170	     21.73023203	     85.71677913	      0.00000000	      0.00000000	     82.38798359	    -19.41295765	     29.86845821	     31.93085749	     85.21404310	      0.00000000	      0.00000000
      3.24000000	      4.48117548	     -3.82864319	      1.20965831	     -0.31963083	      0.95191626	     -1.04909354	     37.54206595	     -1.01119244	      4.04810415	      8.91842679	      0.15565591	      2.64538370	      0.00000000	      0.00000000	      3.27668056	      0.89072943	     -7.64663145	     14.03189199	      0.24490272	     -5.41280924	      0.00000000	      0.00000000	    -13.67271975	      1.85904035	      1.26561149	     82.91968302	    -12.44149695	     23.57787408	     21.66783141	     85.79906570	      0.00000000	      0.00000000	     82.42338379	    -19.61743958	     30.18908926	     32.18210043	     84.90201481	      0.00000000	      0.00000000
      3.24500000	      4.44020833	     -3.84051198	      1.15685271	     -0.31998788	      0.95180856	     -1.04898254	     37.68732658	     -0.94291701	      4.12371303	      8.92540371	      0.15577768	      2.52475001	      0.00000000	      0.00000000	      3.42542989	      0.87034323	     -7.71031828	     14.19125789	      0.24768418	     -5.38747924	      0.00000000	      0.00000000	    -13.68772264	      1.83676343	      1.40990428	     82.95232404	    -12.49723824	     23.09725007	     21.64170018	     85.69167524	      0.00000000	      0.00000000	     82.59152431	    -19.36330002	     30.10825249	     31.83246207	     85.17789187	      0.00000000	      0.00000000
      3.25000000	      4.46126551	     -4.01047271	      1.21815040	     -0.32032272	      0.95185849	     -1.04890046	     37.74636569	     -0.81046422	      3.82657407	      8.93521757	      0.15594897	      2.40851872	      0.00000000	      0.00000000	      3.52288507	      0.66336820	     -7.48492028	     14.37785360	      0.25094088	     -5.29980617	      0.00000000	      0.00000000	    -13.76269149	      2.04740881	      1.36704992	     83.10708297	    -12.16189802	     21.96692779	     21.12707591	     85.90493404	      0.00000000	      0.00000000	     82.43204987	    -18.98082514	     28.31614475	     31.63925820	     85.26123591	      0.00000000	      0.00000000
      3.25500000	      4.35655269	     -3.95779517	      1.09369998	     -0.32020214	      0.95172504	     -1.04876319	     37.88831912	     -0.77370551	      4.11649744	      8.85292550	      0.15451270	      2.54866366	      0.00000000	      0.00000000	      3.58691581	      0.72417788	     -7.73422407	     14.31186354	      0.24978914	     -5.23350176	      0.00000000	      0.00000000	    -13.67433103	      1.94594574	      1.50694016	     82.98758852	    -12.50807620	     22.97545519	     21.63195745	     85.61200163	      0.00000000	      0.00000000	     82.59176964	    -19.35946101	     30.01225579	     31.89604199	     85.30987625	      0.00000000	      0.00000000
      3.26000000	      4.37816146	     -3.97027101	      1.11876521	     -0.32101891	      0.95163997	     -1.04868829	     38.02717298	     -0.75732166	      4.02106471	      8.94334608	      0.15609084	      2.45096019	      0.00000000	      0.00000000	      3.70559406	      0.69108999	     -7.64980268	     14.47479724	      0.25263287	     -5.28413338	      0.00000000	      0.00000000	    -13.83659661	      1.95473116	      1.50002565	     83.20921070	    -12.54885365	     23.28666026	     21.52653224	     85.60297861	      0.00000000	      0.00000000	     82.80778632	    -19.40241327	     30.32821213	     31.89543333	     85.32148084	      0.00000000	      0.00000000
      3.26500000	      4.36525613	     -3.95407925	      1.06841077	     -0.32136065	      0.95157963	     -1.04858250	     38.07505878	     -0.72743375	      4.20222725	      8.78543032	      0.15333469	      2.37891506	      0.00000000	      0.00000000	      3.79341604	      0.69854449	     -7.63442478	     14.57850544	      0.25444292	     -5.27249589	      0.00000000	      0.00000000	    -13.89355327	      1.91626512	      1.56925797	     83.23617997	    -12.49267707	     22.62402422	     21.49618273	     85.67129466	      0.00000000	      0.00000000	     82.79165709	    -19.22005611	     29.62713018	     31.89765110	     85.33856350	      0.00000000	      0.00000000
      3.27000000	      4.31108042	     -4.07194482	      1.03140492	     -0.32182648	      0.95145051	     -1.04841914	     38.26620220	     -0.58913687	      4.14237641	      8.84512489	      0.15437655	      2.31248924	      0.00000000	      0.00000000	      4.09741887	      0.51412940	     -7.78304071	     15.03544566	      0.26241803	     -5.02758434	      0.00000000	      0.00000000	    -13.90615197	      2.04508744	      1.64306602	     83.44492388	    -12.15166246	     21.21897112	     20.88653931	     85.92330866	      0.00000000	      0.00000000	     82.70876169	    -18.75602500	     27.90011951	     31.52496499	     85.42784529	      0.00000000	      0.00000000
      3.27500000	      4.35230053	     -3.94987571	      0.98758237	     -0.32209164	      0.95141663	     -1.04835894	     38.31045455	     -0.64522226	      4.26697365	      8.81088636	      0.15377898	      2.39899616	      0.00000000	      0.00000000	      3.94039322	      0.67370853	     -7.73710785	     14.73060728	      0.25709760	     -5.30500602	      0.00000000	      0.00000000	    -14.04149501	      1.88459871	      1.65156296	     83.37673656	    -12.53701183	     22.62765225	     21.58253770	     85.81244544	      0.00000000	      0.00000000	     82.97872370	    -19.26029619	     29.86865029	     31.90240110	     85.58775325	      0.00000000	      0.00000000
      3.28000000	      4.30796265	     -4.00785448	      0.99801441	     -0.32258469	      0.95121767	     -1.04825517	     38.46923645	     -0.58321064	      4.21296371	      8.80622965	      0.15369770	      2.38911028	      0.00000000	      0.00000000	      4.18803870	      0.57556306	     -7.73486565	     15.06590212	      0.26294960	     -5.14416643	      0.00000000	      0.00000000	    -14.07599639	      1.93691427	      1.68626060	     83.53386332	    -12.60222951	     22.98512640	     21.46262191	     85.56892792	      0.00000000	      0.00000000	     83.17866758	    -19.27080188	     30.48636192	     31.77046173	     85.28204775	      0.00000000	      0.00000000
